<?xml version="1.0" encoding="UTF-8"?>
<svg version="1.1" xmlns="http://www.w3.org/2000/svg" width="929" height="532">
<path d="M0 0 C7.65809904 -0.0225708 15.31618574 -0.04092659 22.97430992 -0.05181217 C26.53008635 -0.05703606 30.08583889 -0.06412478 33.64160156 -0.07543945 C37.72721591 -0.08835914 41.81280506 -0.09323229 45.8984375 -0.09765625 C47.81878311 -0.10539818 47.81878311 -0.10539818 49.77792358 -0.11329651 C50.95899689 -0.11337204 52.14007019 -0.11344757 53.35693359 -0.11352539 C54.92246475 -0.11685631 54.92246475 -0.11685631 56.5196228 -0.12025452 C59 0 59 0 61 1 C61.40197001 3.32249342 61.72686657 5.65885633 62 8 C62.20625 8.928125 62.4125 9.85625 62.625 10.8125 C63 13 63 13 62 15 C62.66 15 63.32 15 64 15 C64.495 17.97 64.495 17.97 65 21 C65.33 21 65.66 21 66 21 C66.495 28.425 66.495 28.425 67 36 C67.66 36 68.32 36 69 36 C69 38.97 69 41.94 69 45 C69.66 45 70.32 45 71 45 C71.144375 46.051875 71.28875 47.10375 71.4375 48.1875 C72.14374713 53.76380524 72.14374713 53.76380524 74 59 C74.04022391 61.3329866 74.04320247 63.66706666 74 66 C74.66 66 75.32 66 76 66 C76.13277344 66.99902344 76.26554687 67.99804688 76.40234375 69.02734375 C76.57894531 70.31769531 76.75554687 71.60804688 76.9375 72.9375 C77.19853516 74.86916016 77.19853516 74.86916016 77.46484375 76.83984375 C77.66162423 79.85466313 77.66162423 79.85466313 79 81 C79.04092937 83.33297433 79.04241723 85.66705225 79 88 C79.66 88 80.32 88 81 88 C81.22786458 90.05078125 81.45572917 92.1015625 81.68359375 94.15234375 C81.81886614 96.01140229 81.81886614 96.01140229 83 97 C83 98.66666667 83 100.33333333 83 102 C83.33 102.33 83.66 102.66 84 103 C84.36760731 105.32817964 84.70241581 107.6618385 85 110 C85.33 110 85.66 110 86 110 C86.495 117.425 86.495 117.425 87 125 C87.66 125 88.32 125 89 125 C89.495 128.465 89.495 128.465 90 132 C90.33 132 90.66 132 91 132 C91.22786458 134.05078125 91.45572917 136.1015625 91.68359375 138.15234375 C91.81886614 140.01140229 91.81886614 140.01140229 93 141 C93.23527773 143.34987262 93.41386417 145.70556039 93.5625 148.0625 C93.64628906 149.35285156 93.73007812 150.64320313 93.81640625 151.97265625 C93.87699219 152.97167969 93.93757813 153.97070312 94 155 C94.66 155 95.32 155 96 155 C96.10957031 155.83402344 96.21914063 156.66804687 96.33203125 157.52734375 C97.42467105 165.301497 97.42467105 165.301497 99.625 172.8125 C101.18039685 177.03317487 101.24417765 180.52340979 101 185 C101.66 185 102.32 185 103 185 C103 187.64 103 190.28 103 193 C103.66 193 104.32 193 105 193 C105.33 189.37 105.66 185.74 106 182 C106.66 182 107.32 182 108 182 C108 179.69 108 177.38 108 175 C108.66 175 109.32 175 110 175 C110.33 171.04 110.66 167.08 111 163 C111.33 163 111.66 163 112 163 C112.33 161.35 112.66 159.7 113 158 C113.66 158 114.32 158 115 158 C115.495 151.565 115.495 151.565 116 145 C116.33 145 116.66 145 117 145 C117.33 143.35 117.66 141.7 118 140 C118.66 140 119.32 140 120 140 C119.979375 138.948125 119.95875 137.89625 119.9375 136.8125 C119.98896802 133.67295096 120.26517187 131.03116604 121 128 C121.66 128 122.32 128 123 128 C123 125.69 123 123.38 123 121 C123.66 121 124.32 121 125 121 C125.33 117.37 125.66 113.74 126 110 C126.33 110 126.66 110 127 110 C127.33 108.35 127.66 106.7 128 105 C128.66 105 129.32 105 130 105 C130.33 100.71 130.66 96.42 131 92 C131.33 92 131.66 92 132 92 C132.33 90.02 132.66 88.04 133 86 C133.66 86 134.32 86 135 86 C135.33 81.71 135.66 77.42 136 73 C136.33 73 136.66 73 137 73 C137.33 71.35 137.66 69.7 138 68 C138.66 68 139.32 68 140 68 C140.33 64.04 140.66 60.08 141 56 C141.66 56 142.32 56 143 56 C143 54.02 143 52.04 143 50 C143.66 50 144.32 50 145 50 C145.33 46.04 145.66 42.08 146 38 C146.33 38 146.66 38 147 38 C147.33 36.35 147.66 34.7 148 33 C148.66 33 149.32 33 150 33 C150.33 28.71 150.66 24.42 151 20 C151.33 20 151.66 20 152 20 C152.33 18.35 152.66 16.7 153 15 C153.66 15 154.32 15 155 15 C155.07347656 13.62714844 155.07347656 13.62714844 155.1484375 12.2265625 C155.22320312 11.03804687 155.29796875 9.84953125 155.375 8.625 C155.44460938 7.44164063 155.51421875 6.25828125 155.5859375 5.0390625 C156 2 156 2 158 0 C160.16320801 -0.24723816 160.16320801 -0.24723816 162.87695312 -0.24291992 C163.89140503 -0.24599655 164.90585693 -0.24907318 165.9510498 -0.25224304 C167.05001587 -0.24505753 168.14898193 -0.23787201 169.28125 -0.23046875 C170.96788757 -0.22978142 170.96788757 -0.22978142 172.68859863 -0.2290802 C175.06926527 -0.22605512 177.44992988 -0.21816124 179.83056641 -0.20581055 C183.48477146 -0.18757599 187.13872299 -0.18530067 190.79296875 -0.18554688 C193.1015647 -0.18063101 195.41015893 -0.17480239 197.71875 -0.16796875 C198.81771606 -0.16685593 199.91668213 -0.1657431 201.0489502 -0.16459656 C202.57062805 -0.15502678 202.57062805 -0.15502678 204.12304688 -0.14526367 C205.01858276 -0.14145187 205.91411865 -0.13764008 206.83679199 -0.13371277 C209 0 209 0 211 1 C211 3.31 211 5.62 211 8 C211.66 8 212.32 8 213 8 C213.99 12.95 213.99 12.95 215 18 C215.33 18 215.66 18 216 18 C216 20.31 216 22.62 216 25 C216.66 25 217.32 25 218 25 C218.33 28.63 218.66 32.26 219 36 C219.66 36 220.32 36 221 36 C221 38.31 221 40.62 221 43 C221.66 43 222.32 43 223 43 C223.33 46.96 223.66 50.92 224 55 C224.66 55 225.32 55 226 55 C226.33 56.65 226.66 58.3 227 60 C227.33 60 227.66 60 228 60 C227.95875 60.70125 227.9175 61.4025 227.875 62.125 C228.01668332 65.38371628 228.86734686 67.9559947 230 71 C230.33 71 230.66 71 231 71 C231 73.31 231 75.62 231 78 C231.66 78 232.32 78 233 78 C233.63394697 82.04141194 234.12404452 85.9065307 234 90 C234.66 90 235.32 90 236 90 C236 91.98 236 93.96 236 96 C236.66 96 237.32 96 238 96 C238.99 100.95 238.99 100.95 240 106 C240.33 106 240.66 106 241 106 C241 108.31 241 110.62 241 113 C241.66 113 242.32 113 243 113 C243.33 116.96 243.66 120.92 244 125 C244.66 125 245.32 125 246 125 C246 126.98 246 128.96 246 131 C246.66 131 247.32 131 248 131 C248.99 136.445 248.99 136.445 250 142 C250.33 142 250.66 142 251 142 C251 143.98 251 145.96 251 148 C251.66 148 252.32 148 253 148 C253.33 151.96 253.66 155.92 254 160 C254.66 160 255.32 160 256 160 C256 161.98 256 163.96 256 166 C256.66 166 257.32 166 258 166 C258.33 169.96 258.66 173.92 259 178 C259.66 178 260.32 178 261 178 C261.33 179.65 261.66 181.3 262 183 C262.33 183 262.66 183 263 183 C263.33 185.31 263.66 187.62 264 190 C264.33 190 264.66 190 265 190 C265.33 187.36 265.66 184.72 266 182 C266.33 182 266.66 182 267 182 C267.33 179.69 267.66 177.38 268 175 C268.66 175 269.32 175 270 175 C269.98839844 174.43152344 269.97679687 173.86304688 269.96484375 173.27734375 C269.90776806 168.39329516 270.18043228 163.81496035 271 159 C271.33 159 271.66 159 272 159 C272.33 156.36 272.66 153.72 273 151 C273.33 151 273.66 151 274 151 C274.66 146.38 275.32 141.76 276 137 C276.33 137 276.66 137 277 137 C277.33 134.69 277.66 132.38 278 130 C278.66 130 279.32 130 280 130 C280.33 125.05 280.66 120.1 281 115 C281.66 115 282.32 115 283 115 C283 112.03 283 109.06 283 106 C283.66 106 284.32 106 285 106 C285.33 101.71 285.66 97.42 286 93 C286.66 93 287.32 93 288 93 C288 90.36 288 87.72 288 85 C288.66 85 289.32 85 290 85 C290.33 80.05 290.66 75.1 291 70 C291.66 70 292.32 70 293 70 C293 67.69 293 65.38 293 63 C293.66 63 294.32 63 295 63 C295.33 58.05 295.66 53.1 296 48 C296.66 48 297.32 48 298 48 C298 45.36 298 42.72 298 40 C298.66 40 299.32 40 300 40 C300.33 35.05 300.66 30.1 301 25 C301.33 25 301.66 25 302 25 C302.33 22.69 302.66 20.38 303 18 C303.66 18 304.32 18 305 18 C304.9690625 16.2365625 304.9690625 16.2365625 304.9375 14.4375 C304.93052739 10.52586533 305.35749657 6.85502056 306 3 C306.66 3 307.32 3 308 3 C308 2.01 308 1.02 308 0 C328.13 0 348.26 0 369 0 C368.67 3.96 368.34 7.92 368 12 C367.67 12 367.34 12 367 12 C366.67 14.31 366.34 16.62 366 19 C365.34 19 364.68 19 364 19 C363.67 23.95 363.34 28.9 363 34 C362.34 34 361.68 34 361 34 C361 36.64 361 39.28 361 42 C360.67 42 360.34 42 360 42 C359.34 46.62 358.68 51.24 358 56 C357.34 56 356.68 56 356 56 C356 58.64 356 61.28 356 64 C355.67 64 355.34 64 355 64 C354.34 68.95 353.68 73.9 353 79 C352.67 79 352.34 79 352 79 C351.67 81.31 351.34 83.62 351 86 C350.34 86 349.68 86 349 86 C348.67 90.95 348.34 95.9 348 101 C347.34 101 346.68 101 346 101 C346 103.31 346 105.62 346 108 C345.34 108 344.68 108 344 108 C343.67 112.62 343.34 117.24 343 122 C342.34 122 341.68 122 341 122 C341 124.97 341 127.94 341 131 C340.67 131 340.34 131 340 131 C339.34 135.62 338.68 140.24 338 145 C337.67 145 337.34 145 337 145 C336.67 147.64 336.34 150.28 336 153 C335.67 153 335.34 153 335 153 C334.87882812 153.92941406 334.75765625 154.85882813 334.6328125 155.81640625 C332.96836555 168.09490334 332.96836555 168.09490334 331 174 C330.34 174 329.68 174 329 174 C328.67 178.95 328.34 183.9 328 189 C327.34 189 326.68 189 326 189 C326 191.97 326 194.94 326 198 C325.34 198 324.68 198 324 198 C323.67 202.29 323.34 206.58 323 211 C322.34 211 321.68 211 321 211 C321 213.64 321 216.28 321 219 C320.34 219 319.68 219 319 219 C318.67 223.95 318.34 228.9 318 234 C317.67 234 317.34 234 317 234 C316.67 236.31 316.34 238.62 316 241 C315.34 241 314.68 241 314 241 C313.67 245.95 313.34 250.9 313 256 C312.34 256 311.68 256 311 256 C311 258.64 311 261.28 311 264 C310.67 264 310.34 264 310 264 C309.34 268.62 308.68 273.24 308 278 C307.34 278 306.68 278 306 278 C306 280.64 306 283.28 306 286 C305.34 286 304.68 286 304 286 C303.67 290.95 303.34 295.9 303 301 C302.67 301 302.34 301 302 301 C301.67 303.31 301.34 305.62 301 308 C300.34 308 299.68 308 299 308 C299 309.98 299 311.96 299 314 C291.34190448 314.02314591 283.68381258 314.0409266 276.02569008 314.05181217 C272.46991365 314.05703606 268.91416111 314.06412478 265.35839844 314.07543945 C261.27278409 314.08835914 257.18719494 314.09323229 253.1015625 314.09765625 C251.18121689 314.10539818 251.18121689 314.10539818 249.22207642 314.11329651 C248.04100311 314.11337204 246.85992981 314.11344757 245.64306641 314.11352539 C244.59937897 314.115746 243.55569153 314.11796661 242.4803772 314.12025452 C240 314 240 314 238 313 C238 310.69 238 308.38 238 306 C237.34 306 236.68 306 236 306 C235.01 301.05 235.01 301.05 234 296 C233.67 296 233.34 296 233 296 C233 293.69 233 291.38 233 289 C232.34 289 231.68 289 231 289 C230.67 285.37 230.34 281.74 230 278 C229.34 278 228.68 278 228 278 C228 275.69 228 273.38 228 271 C227.34 271 226.68 271 226 271 C225.01 265.555 225.01 265.555 224 260 C223.67 260 223.34 260 223 260 C223 258.02 223 256.04 223 254 C222.34 254 221.68 254 221 254 C220.67 250.37 220.34 246.74 220 243 C219.34 243 218.68 243 218 243 C218 240.69 218 238.38 218 236 C217.34 236 216.68 236 216 236 C215.67 232.04 215.34 228.08 215 224 C214.34 224 213.68 224 213 224 C212.67 222.35 212.34 220.7 212 219 C211.67 219 211.34 219 211 219 C210.67 215.37 210.34 211.74 210 208 C209.34 208 208.68 208 208 208 C208 205.69 208 203.38 208 201 C207.34 201 206.68 201 206 201 C205.01751476 196.9472484 204.91840426 193.16138263 205 189 C204.34 189 203.68 189 203 189 C202.67 187.35 202.34 185.7 202 184 C201.67 184 201.34 184 201 184 C200.67 180.04 200.34 176.08 200 172 C199.34 172 198.68 172 198 172 C198 170.02 198 168.04 198 166 C197.34 166 196.68 166 196 166 C195.67 162.04 195.34 158.08 195 154 C194.34 154 193.68 154 193 154 C192.67 152.35 192.34 150.7 192 149 C191.67 149 191.34 149 191 149 C190.86722656 148.21753906 190.73445312 147.43507813 190.59765625 146.62890625 C190.42105469 145.61699219 190.24445313 144.60507812 190.0625 143.5625 C189.88847656 142.55316406 189.71445312 141.54382813 189.53515625 140.50390625 C189.25248903 138.0712562 189.25248903 138.0712562 188 137 C187.95919217 135.00041636 187.95745644 132.99954746 188 131 C187.34 131 186.68 131 186 131 C185.01751476 126.9472484 184.91840426 123.16138263 185 119 C184.34 119 183.68 119 183 119 C183 120.65 183 122.3 183 124 C182.67 124 182.34 124 182 124 C181.67 125.65 181.34 127.3 181 129 C180.34 129 179.68 129 179 129 C179.0309375 130.5778125 179.0309375 130.5778125 179.0625 132.1875 C179.01103198 135.32704904 178.73482813 137.96883396 178 141 C177.34 141 176.68 141 176 141 C176 143.31 176 145.62 176 148 C175.34 148 174.68 148 174 148 C173.67 151.63 173.34 155.26 173 159 C172.34 159 171.68 159 171 159 C171 161.31 171 163.62 171 166 C170.67 166 170.34 166 170 166 C168.68373308 169.61973402 168 172.09567131 168 176 C167.34 176 166.68 176 166 176 C166 178.64 166 181.28 166 184 C165.67 184 165.34 184 165 184 C164.34 187.63 163.68 191.26 163 195 C162.67 195 162.34 195 162 195 C161.67 196.98 161.34 198.96 161 201 C160.34 201 159.68 201 159 201 C158.67 204.63 158.34 208.26 158 212 C157.34 212 156.68 212 156 212 C156 214.31 156 216.62 156 219 C155.67 219 155.34 219 155 219 C154.34 222.96 153.68 226.92 153 231 C152.34 231 151.68 231 151 231 C151 232.65 151 234.3 151 236 C150.34 236 149.68 236 149 236 C149.04125 237.051875 149.0825 238.10375 149.125 239.1875 C149.0051882 242.84175993 148.42761426 244.72488493 147 248 C146.62406934 249.9924325 146.28020455 251.9918674 146 254 C145.34 254 144.68 254 144 254 C144.0309375 255.7015625 144.0309375 255.7015625 144.0625 257.4375 C144 261 144 261 143 262 C142.95936168 263.66617115 142.957279 265.33388095 143 267 C142.67 267 142.34 267 142 267 C141.67 268.98 141.34 270.96 141 273 C140.67 273 140.34 273 140 273 C138.28048715 278.98044406 136.68804496 284.80759538 136 291 C135.67 291 135.34 291 135 291 C133.46291334 295.11188744 133.46291334 295.11188744 133 299.4375 C133 302.85156775 132.01643048 305.76012786 131 309 C130.67 309 130.34 309 130 309 C129.67 310.65 129.34 312.3 129 314 C109.53 314 90.06 314 70 314 C70 313.01 70 312.02 70 311 C69.34 311 68.68 311 68 311 C67.505 307.535 67.505 307.535 67 304 C66.67 304 66.34 304 66 304 C65.505 296.575 65.505 296.575 65 289 C64.34 289 63.68 289 63 289 C63 286.36 63 283.72 63 281 C62.34 281 61.68 281 61 281 C60.86722656 280.00097656 60.73445313 279.00195312 60.59765625 277.97265625 C60.42105469 276.68230469 60.24445313 275.39195312 60.0625 274.0625 C59.88847656 272.77472656 59.71445313 271.48695313 59.53515625 270.16015625 C59.33837577 267.14533687 59.33837577 267.14533687 58 266 C57.95907063 263.66702567 57.95758277 261.33294775 58 259 C57.34 259 56.68 259 56 259 C55.505 251.575 55.505 251.575 55 244 C54.34 244 53.68 244 53 244 C52.505 240.535 52.505 240.535 52 237 C51.67 237 51.34 237 51 237 C50.87882812 236.07058594 50.75765625 235.14117187 50.6328125 234.18359375 C49.38814199 224.96381236 49.38814199 224.96381236 47 216 C46.67 216 46.34 216 46 216 C45.505 208.575 45.505 208.575 45 201 C44.34 201 43.68 201 43 201 C42.67 198.36 42.34 195.72 42 193 C41.67 193 41.34 193 41 193 C40.505 185.575 40.505 185.575 40 178 C39.34 178 38.68 178 38 178 C38 175.69 38 173.38 38 171 C37.34 171 36.68 171 36 171 C35.505 163.575 35.505 163.575 35 156 C34.34 156 33.68 156 33 156 C32.505 152.535 32.505 152.535 32 149 C31.67 149 31.34 149 31 149 C30.505 141.575 30.505 141.575 30 134 C29.34 134 28.68 134 28 134 C28 131.36 28 128.72 28 126 C27.34 126 26.68 126 26 126 C25.505 119.07 25.505 119.07 25 112 C24.34 112 23.68 112 23 112 C23 109.36 23 106.72 23 104 C22.34 104 21.68 104 21 104 C20.67 99.05 20.34 94.1 20 89 C19.34 89 18.68 89 18 89 C18 86.69 18 84.38 18 82 C17.34 82 16.68 82 16 82 C15.505 74.575 15.505 74.575 15 67 C14.34 67 13.68 67 13 67 C12.67 65.02 12.34 63.04 12 61 C11.67 61 11.34 61 11 61 C10.505 53.575 10.505 53.575 10 46 C9.34 46 8.68 46 8 46 C7.67 43.69 7.34 41.38 7 39 C6.67 39 6.34 39 6 39 C5.505 31.575 5.505 31.575 5 24 C4.34 24 3.68 24 3 24 C3 21.36 3 18.72 3 16 C2.34 16 1.68 16 1 16 C0.67 10.72 0.34 5.44 0 0 Z " fill="#A6A8AB" transform="translate(184,113)"/>
<path d="M0 0 C0 0.33 0 0.66 0 1 C2.64 1.33 5.28 1.66 8 2 C8 2.33 8 2.66 8 3 C8.74765625 3.12117187 9.4953125 3.24234375 10.265625 3.3671875 C11.25046875 3.53476563 12.2353125 3.70234375 13.25 3.875 C14.22453125 4.03742188 15.1990625 4.19984375 16.203125 4.3671875 C18.77264117 4.94855848 20.72071056 5.70840265 23 7 C23 7.66 23 8.32 23 9 C24.85625 9.1546875 24.85625 9.1546875 26.75 9.3125 C30.36837605 9.75764292 32.20900476 10.59396962 35 13 C36.64797236 13.71162443 38.31165408 14.39031953 40 15 C40 15.66 40 16.32 40 17 C40.99 17 41.98 17 43 17 C43 17.66 43 18.32 43 19 C44.65 19.33 46.3 19.66 48 20 C48 20.66 48 21.32 48 22 C48.66 22 49.32 22 50 22 C50 22.66 50 23.32 50 24 C50.721875 24.061875 51.44375 24.12375 52.1875 24.1875 C55.88399074 25.2553751 57.53138868 27.10819816 60 30 C60 30.66 60 31.32 60 32 C60.66 32.33 61.32 32.66 62 33 C62.99 33.66 63.98 34.32 65 35 C65 35.66 65 36.32 65 37 C65.66 37.33 66.32 37.66 67 38 C70.3556206 40.2370804 70.19278041 40.42517038 71 44 C71.66 44.33 72.32 44.66 73 45 C73 45.66 73 46.32 73 47 C73.66 47 74.32 47 75 47 C75 47.99 75 48.98 75 50 C75.66 50 76.32 50 77 50 C77.33 51.65 77.66 53.3 78 55 C78.66 55 79.32 55 80 55 C82.6855594 57.6855594 83.06049974 60.37621328 84 64 C84.33 64 84.66 64 85 64 C85 65.65 85 67.3 85 69 C85.66 69 86.32 69 87 69 C87.33 71.31 87.66 73.62 88 76 C88.66 76 89.32 76 90 76 C90.33 77.65 90.66 79.3 91 81 C91.33 81 91.66 81 92 81 C92.33 85.29 92.66 89.58 93 94 C93.66 94 94.32 94 95 94 C95.33 97.3 95.66 100.6 96 104 C96.33 104 96.66 104 97 104 C97 115.88 97 127.76 97 140 C35.95 140 -25.1 140 -88 140 C-87.505 143.465 -87.505 143.465 -87 147 C-86.34 147 -85.68 147 -85 147 C-85 148.65 -85 150.3 -85 152 C-84.34 152 -83.68 152 -83 152 C-82.690625 153.093125 -82.38125 154.18625 -82.0625 155.3125 C-81.41662103 157.55407994 -80.7376883 159.7869351 -80 162 C-79.34 162 -78.68 162 -78 162 C-77.505 164.475 -77.505 164.475 -77 167 C-76.34 167 -75.68 167 -75 167 C-75 167.66 -75 168.32 -75 169 C-74.34 169 -73.68 169 -73 169 C-73 169.99 -73 170.98 -73 172 C-72.01 172.33 -71.02 172.66 -70 173 C-67.3125 174.9375 -67.3125 174.9375 -65 177 C-65 177.66 -65 178.32 -65 179 C-64.01 179 -63.02 179 -62 179 C-62 179.66 -62 180.32 -62 181 C-60.35 181.33 -58.7 181.66 -57 182 C-57 182.66 -57 183.32 -57 184 C-53.93448401 184.79502868 -50.85676844 185.44932202 -47.75 186.0625 C-46.85796875 186.23910156 -45.9659375 186.41570312 -45.046875 186.59765625 C-44.37140625 186.73042969 -43.6959375 186.86320313 -43 187 C-43 187.33 -43 187.66 -43 188 C-40.03 188.33 -37.06 188.66 -34 189 C-34 189.66 -34 190.32 -34 191 C-27.4 191 -20.8 191 -14 191 C-14 190.34 -14 189.68 -14 189 C-11.36 188.67 -8.72 188.34 -6 188 C-6 187.67 -6 187.34 -6 187 C-2.04 186.67 1.92 186.34 6 186 C6 185.34 6 184.68 6 184 C6.99 184 7.98 184 9 184 C9 183.34 9 182.68 9 182 C11.31 181.67 13.62 181.34 16 181 C16.33 179.68 16.66 178.36 17 177 C17.639375 176.87625 18.27875 176.7525 18.9375 176.625 C19.618125 176.41875 20.29875 176.2125 21 176 C21.33 175.34 21.66 174.68 22 174 C22.99 174 23.98 174 25 174 C25 173.34 25 172.68 25 172 C26.32 171.67 27.64 171.34 29 171 C29.33 169.68 29.66 168.36 30 167 C30.99 167 31.98 167 33 167 C33 167.66 33 168.32 33 169 C33.99 169 34.98 169 36 169 C36 169.66 36 170.32 36 171 C38.31 171.33 40.62 171.66 43 172 C43 172.66 43 173.32 43 174 C44.65 174 46.3 174 48 174 C48 174.66 48 175.32 48 176 C49.093125 176.12375 50.18625 176.2475 51.3125 176.375 C55 177 55 177 58 179 C58 179.66 58 180.32 58 181 C60.31 181.33 62.62 181.66 65 182 C65 182.66 65 183.32 65 184 C65.99 184 66.98 184 68 184 C68 184.66 68 185.32 68 186 C68.59167969 186.02578125 69.18335938 186.0515625 69.79296875 186.078125 C75.0720013 186.45704414 78.10636661 187.10636661 82 191 C81.42676569 194.86933162 79.61046448 197.15222057 77 200 C76.34 200 75.68 200 75 200 C74.67 200.99 74.34 201.98 74 203 C73.1875 205.125 73.1875 205.125 72 207 C69.875 207.75 69.875 207.75 68 208 C67.67 209.32 67.34 210.64 67 212 C65.68 212.33 64.36 212.66 63 213 C62.67 214.32 62.34 215.64 62 217 C60.35 217.33 58.7 217.66 57 218 C57 218.66 57 219.32 57 220 C56.34 220 55.68 220 55 220 C55 220.66 55 221.32 55 222 C53.35 222.33 51.7 222.66 50 223 C50 223.66 50 224.32 50 225 C49.34 225 48.68 225 48 225 C48 225.66 48 226.32 48 227 C46.02 227.33 44.04 227.66 42 228 C42 228.66 42 229.32 42 230 C39.79168118 232.20831882 38.50342124 232.6114458 35.5625 233.5 C32.53797225 234.41682554 30.68542804 235.20971464 28 237 C25.08203125 237.4140625 25.08203125 237.4140625 21.8125 237.625 C20.72582031 237.69976562 19.63914062 237.77453125 18.51953125 237.8515625 C17.68808594 237.90054688 16.85664062 237.94953125 16 238 C16 238.66 16 239.32 16 240 C14.02 240.33 12.04 240.66 10 241 C10 241.33 10 241.66 10 242 C6.7 242.33 3.4 242.66 0 243 C0 243.33 0 243.66 0 244 C-14.85 244 -29.7 244 -45 244 C-45 243.34 -45 242.68 -45 242 C-48.63 242 -52.26 242 -56 242 C-56 241.67 -56 241.34 -56 241 C-63.18496645 238.93523003 -63.18496645 238.93523003 -70.5 237.4375 C-73 237 -73 237 -76 235 C-76 234.34 -76 233.68 -76 233 C-78.31 232.67 -80.62 232.34 -83 232 C-83 231.34 -83 230.68 -83 230 C-83.99 230 -84.98 230 -86 230 C-86 229.34 -86 228.68 -86 228 C-87.11375 227.9175 -88.2275 227.835 -89.375 227.75 C-91.169375 227.37875 -91.169375 227.37875 -93 227 C-94.1875 225 -94.1875 225 -95 223 C-97.05000871 222.19471111 -97.05000871 222.19471111 -99 222 C-99 221.34 -99 220.68 -99 220 C-99.66 220 -100.32 220 -101 220 C-101 219.34 -101 218.68 -101 218 C-102.65 217.67 -104.3 217.34 -106 217 C-106 216.34 -106 215.68 -106 215 C-106.66 215 -107.32 215 -108 215 C-109.625 213.625 -109.625 213.625 -111 212 C-111 211.34 -111 210.68 -111 210 C-111.66 210 -112.32 210 -113 210 C-114.625 208.625 -114.625 208.625 -116 207 C-116 206.34 -116 205.68 -116 205 C-116.66 205 -117.32 205 -118 205 C-120.625 202.6875 -120.625 202.6875 -123 200 C-123 199.01 -123 198.02 -123 197 C-123.66 196.67 -124.32 196.34 -125 196 C-125.625 193.9375 -125.625 193.9375 -126 192 C-126.66 192 -127.32 192 -128 192 C-131.875 185.375 -131.875 185.375 -133 182 C-133.66 182 -134.32 182 -135 182 C-135.66 179.69 -136.32 177.38 -137 175 C-137.33 175 -137.66 175 -138 175 C-138 173.35 -138 171.7 -138 170 C-138.66 170 -139.32 170 -140 170 C-140.495 165.05 -140.495 165.05 -141 160 C-141.66 160 -142.32 160 -143 160 C-143.33 158.02 -143.66 156.04 -144 154 C-144.33 154 -144.66 154 -145 154 C-145.83132641 147.49138288 -146.14740522 141.15132622 -146.1328125 134.59375 C-146.13376923 133.62900757 -146.13472595 132.66426514 -146.13571167 131.67028809 C-146.13638807 129.64330988 -146.13457174 127.61632944 -146.13037109 125.58935547 C-146.12501519 122.50873898 -146.13033457 119.42826827 -146.13671875 116.34765625 C-146.13605787 114.36718718 -146.13477651 112.3867182 -146.1328125 110.40625 C-146.13483673 109.49661499 -146.13686096 108.58697998 -146.13894653 107.64978027 C-146.10930875 99.45838969 -145.49719501 91.82454436 -143 84 C-142.67 84 -142.34 84 -142 84 C-140.8706865 80.68734708 -139.79538251 77.40878219 -139 74 C-138.66666667 72.66666667 -138.33333333 71.33333333 -138 70 C-137.34 70 -136.68 70 -136 70 C-135.67 68.02 -135.34 66.04 -135 64 C-134.34 64 -133.68 64 -133 64 C-133 62.68 -133 61.36 -133 60 C-132.34 60 -131.68 60 -131 60 C-130.67 58.35 -130.34 56.7 -130 55 C-129.34 55 -128.68 55 -128 55 C-128 54.01 -128 53.02 -128 52 C-127.34 52 -126.68 52 -126 52 C-125.67 50.35 -125.34 48.7 -125 47 C-124.34 47 -123.68 47 -123 47 C-123 46.34 -123 45.68 -123 45 C-122.34 45 -121.68 45 -121 45 C-121 44.01 -121 43.02 -121 42 C-120.34 42 -119.68 42 -119 42 C-118.67 41.01 -118.34 40.02 -118 39 C-117.34 39 -116.68 39 -116 39 C-115.67 37.68 -115.34 36.36 -115 35 C-113.02 34.505 -113.02 34.505 -111 34 C-111 33.34 -111 32.68 -111 32 C-110.34 32 -109.68 32 -109 32 C-108.67 31.01 -108.34 30.02 -108 29 C-107.34 29 -106.68 29 -106 29 C-106 28.34 -106 27.68 -106 27 C-105.34 27 -104.68 27 -104 27 C-104 26.34 -104 25.68 -104 25 C-102 24 -100 23 -98 22 C-98 21.34 -98 20.68 -98 20 C-96.35 19.67 -94.7 19.34 -93 19 C-93 18.34 -93 17.68 -93 17 C-90.09451118 14.95830515 -88.59857954 14 -85 14 C-85 13.34 -85 12.68 -85 12 C-83.68 12 -82.36 12 -81 12 C-81 11.34 -81 10.68 -81 10 C-77.535 9.505 -77.535 9.505 -74 9 C-74 8.34 -74 7.68 -74 7 C-70.7188698 4.81257986 -68.66915644 4.45557194 -64.8125 3.875 C-63.72582031 3.70742187 -62.63914062 3.53984375 -61.51953125 3.3671875 C-60.68808594 3.24601563 -59.85664062 3.12484375 -59 3 C-59 2.67 -59 2.34 -59 2 C-56.36 1.67 -53.72 1.34 -51 1 C-51 0.67 -51 0.34 -51 0 C-34.00395213 -1.59962803 -17.00357866 -1.34681811 0 0 Z M-45 53 C-45 53.66 -45 54.32 -45 55 C-46.65 55 -48.3 55 -50 55 C-50 55.66 -50 56.32 -50 57 C-52.31 57.33 -54.62 57.66 -57 58 C-57 58.66 -57 59.32 -57 60 C-57.99 60 -58.98 60 -60 60 C-60 60.66 -60 61.32 -60 62 C-61.65 62.33 -63.3 62.66 -65 63 C-65 63.66 -65 64.32 -65 65 C-65.66 65 -66.32 65 -67 65 C-67 65.66 -67 66.32 -67 67 C-67.99 67.33 -68.98 67.66 -70 68 C-70 68.66 -70 69.32 -70 70 C-70.66 70 -71.32 70 -72 70 C-76.31082547 73.64762155 -77.94740632 76.91738708 -80 82 C-80.66 82.33 -81.32 82.66 -82 83 C-82.40729228 85.32156597 -82.74438677 87.6568787 -83 90 C-83.66 90 -84.32 90 -85 90 C-85 90.66 -85 91.32 -85 92 C-45.07 92 -5.14 92 36 92 C35.34 89.69 34.68 87.38 34 85 C33.34 85 32.68 85 32 85 C31.87625 84.4225 31.7525 83.845 31.625 83.25 C30.99351176 80.97664233 30.11141809 79.0746471 29 77 C28.34 77 27.68 77 27 77 C26.5359375 75.824375 26.5359375 75.824375 26.0625 74.625 C25.07124962 72.07669872 25.07124962 72.07669872 24 70 C23.34 70 22.68 70 22 70 C22 69.34 22 68.68 22 68 C20.72943475 66.31267956 20.72943475 66.31267956 19 65 C18.01 65 17.02 65 16 65 C16 64.34 16 63.68 16 63 C13.4385343 60.70351351 12.52032428 60 9 60 C9 59.34 9 58.68 9 58 C6.69 57.34 4.38 56.68 2 56 C2 55.67 2 55.34 2 55 C0.35 55 -1.3 55 -3 55 C-3 54.34 -3 53.68 -3 53 C-7.36577332 52.16355903 -11.49492079 51.87140819 -15.9375 51.8671875 C-17.24460937 51.86589844 -18.55171875 51.86460937 -19.8984375 51.86328125 C-20.90922363 51.86642334 -20.90922363 51.86642334 -21.94042969 51.86962891 C-23.99421574 51.87498492 -26.04778315 51.86966555 -28.1015625 51.86328125 C-29.40867187 51.86457031 -30.71578125 51.86585938 -32.0625 51.8671875 C-33.84333984 51.86887939 -33.84333984 51.86887939 -35.66015625 51.87060547 C-38.8589496 51.99453533 -41.85936223 52.39828344 -45 53 Z " fill="#A6A8AB" transform="translate(690,189)"/>
<path d="M0 0 C20.13 0 40.26 0 61 0 C61 105.93 61 211.86 61 321 C40.87 321 20.74 321 0 321 C0 215.07 0 109.14 0 0 Z " fill="#A6A8AB" transform="translate(812,106)"/>
<path d="M0 0 C20.79 0 41.58 0 63 0 C63 78.21 63 156.42 63 237 C42.21 237 21.42 237 0 237 C0 158.79 0 80.58 0 0 Z " fill="#B1B9BC" transform="translate(88,192)"/>
<path d="M0 0 C3.63 0 7.26 0 11 0 C11 0.66 11 1.32 11 2 C12.134375 1.938125 13.26875 1.87625 14.4375 1.8125 C19.33847991 1.78619778 23.473967 3.23987606 28 5 C28 5.66 28 6.32 28 7 C29.175625 7.4640625 29.175625 7.4640625 30.375 7.9375 C33 9 33 9 35 10 C35 10.66 35 11.32 35 12 C35.99 12.33 36.98 12.66 38 13 C38 13.66 38 14.32 38 15 C38.99 15.33 39.98 15.66 41 16 C44.34073619 18.75119451 45.52153935 20.69385411 46 25 C46.66 25 47.32 25 48 25 C48 26.32 48 27.64 48 29 C48.66 29 49.32 29 50 29 C50.495 33.95 50.495 33.95 51 39 C51.66 39 52.32 39 53 39 C53.71801305 64.42298043 53.71801305 64.42298043 48 73 C47.34 73 46.68 73 46 73 C45.67 74.65 45.34 76.3 45 78 C44.34 78 43.68 78 43 78 C43 78.66 43 79.32 43 80 C41.625 81.625 41.625 81.625 40 83 C39.34 83 38.68 83 38 83 C38 83.66 38 84.32 38 85 C36.04109119 86.39300182 34.0360882 87.72245446 32 89 C31.01 89.66 30.02 90.32 29 91 C28.01 91 27.02 91 26 91 C26 91.66 26 92.32 26 93 C22.3558226 95.4294516 20.28758728 95.16179575 16 95 C16 95.66 16 96.32 16 97 C8.74 97 1.48 97 -6 97 C-6 96.34 -6 95.68 -6 95 C-6.9075 95.061875 -7.815 95.12375 -8.75 95.1875 C-12.41886878 94.97583449 -13.26724506 94.29198801 -16 92 C-17.64797236 91.28837557 -19.31165408 90.60968047 -21 90 C-21 89.34 -21 88.68 -21 88 C-21.8971875 87.814375 -21.8971875 87.814375 -22.8125 87.625 C-25 87 -25 87 -28 85 C-28 84.34 -28 83.68 -28 83 C-28.66 83 -29.32 83 -30 83 C-34.27867509 79.37958261 -36.18025121 76.17191762 -38 71 C-38 70.01 -38 69.02 -38 68 C-38.66 68 -39.32 68 -40 68 C-40.13277344 67.28972656 -40.26554687 66.57945312 -40.40234375 65.84765625 C-40.57894531 64.92855469 -40.75554687 64.00945312 -40.9375 63.0625 C-41.11152344 62.14597656 -41.28554687 61.22945312 -41.46484375 60.28515625 C-41.77714988 58.04710156 -41.77714988 58.04710156 -43 57 C-43.07325168 54.13732433 -43.09238205 51.299281 -43.0625 48.4375 C-43.05798828 47.63119141 -43.05347656 46.82488281 -43.04882812 45.99414062 C-43.03700518 43.99606244 -43.01906914 41.99802217 -43 40 C-42.34 40 -41.68 40 -41 40 C-40.95101562 39.25234375 -40.90203125 38.5046875 -40.8515625 37.734375 C-40.77679688 36.74953125 -40.70203125 35.7646875 -40.625 34.75 C-40.55539063 33.77546875 -40.48578125 32.8009375 -40.4140625 31.796875 C-40.01089652 29.07360292 -39.47210492 27.30876887 -38 25 C-37.34 24.67 -36.68 24.34 -36 24 C-35.34786708 21.97536745 -35.34786708 21.97536745 -35 20 C-33.68 19.67 -32.36 19.34 -31 19 C-30.85691406 18.11054687 -30.85691406 18.11054687 -30.7109375 17.203125 C-29.84697384 14.52578707 -28.76825171 13.54056472 -26.625 11.75 C-26.01914063 11.22921875 -25.41328125 10.7084375 -24.7890625 10.171875 C-23 9 -23 9 -20 9 C-20 8.34 -20 7.68 -20 7 C-16.34353669 3.34353669 -10.63550274 2.20695454 -5.5625 1.80859375 C-3.7072389 1.81190672 -1.85240761 1.89708847 0 2 C0 1.34 0 0.68 0 0 Z " fill="#00C189" transform="translate(115,79)"/>
<path d="" fill="#A6A8AB" transform="translate(0,0)"/>
<path d="" fill="#00C189" transform="translate(0,0)"/>
</svg>
