<svg id="e1iDeExFso31" xmlns="http://www.w3.org/2000/svg" xmlns:xlink="http://www.w3.org/1999/xlink" viewBox="0 0 512 512" shape-rendering="geometricPrecision" text-rendering="geometricPrecision" project-id="3d002f4f677c41d59b48ff109ffc7435" export-id="2941a6f985c441f8b97c553e00db5649" cached="false" style="background-color:transparent"><path d="M0.999993,433.167654C1,289.142079,1,145.116489,1,1.045447c170.633542,0,341.267113,0,511.999993,0c0,170.585235,0,341.216026,0,512-170.600347,0-341.300155,0-511.999993,0c0-25.270485,0-50.60835.356875-76.416123c4.134849-3.754661,7.912825-7.039443,12.045128-10.395543c1.629231-.778683,3.026-1.329984,4.16089-2.216619c20.128183-15.72476,40.199004-31.523003,60.334352-47.238574c23.998314-18.730564,48.022374-37.428308,72.080011-56.08258c18.869153-14.631074,37.847337-29.121559,56.699824-43.773972c14.223569-11.054765,28.267262-22.341172,42.497118-33.387755c14.068005-10.920924,28.339175-21.580151,42.395154-32.516339c20.278744-15.777819,40.398094-31.760522,60.670427-47.546676c18.827687-14.661206,37.773623-29.170437,56.654543-43.763317c14.759882-11.407754,29.517688-22.818332,44.239293-34.27536c5.19983-4.046713,10.289807-8.234625,15.724913-12.594707-1.042194-.457697-1.319928-.686347-1.597844-.686606-44.16973-.041902-88.339552-.09194-132.508976.011952-1.496872.003511-3.517741,1.196052-4.396422,2.459222-4.567414,6.566139-8.92095,13.285855-13.206998,20.042199-16.410562,25.86884-32.39642,52.017421-49.30311,77.556778-8.179534,12.356051-18.145991,23.502695-30.313924,32.367477-.317201-.325641-.444956-.455026-.528453-.95583c4.392011-10.544817,8.853844-20.672495,12.967954-30.939555.63724-1.590293.319444-4.242583-.638643-5.684578-6.948049-10.457335-14.239792-20.68521-21.297679-31.070756-13.563299-19.958144-27.113153-39.926403-40.483513-60.013686-1.989369-2.988785-4.062769-3.986586-7.611141-3.971809-35.834388.149197-71.669608.094862-107.504591.114859-1.728263.000962-3.456434.161959-6.035778.291022c3.526754,4.932212,6.604812,9.109445,9.550917,13.377787c19.062108,27.61732,38.089464,55.258644,57.139958,82.883971c17.765392,25.761811,35.48558,51.555357,53.411985,77.204652c1.779429,2.546047,1.707912,3.904728-.42916,5.782196-3.976387,3.49339-8.002605,6.950863-11.744099,10.687695-36.675616,36.629996-73.259981,73.351426-109.949676,109.967287-17.05201,17.017679-34.278583,33.860396-51.734016,50.920604-1.59685,1.437326-2.803252,2.833557-4.192753,4.01413-2.424809,2.060156-4.962319,3.987631-7.452572,5.970762M484.09015,103.035862c0,0,.01398.05477.528117-.094931.175876-.297815.351753-.595629.471496-.906099c0,0,.012758.056152.527385-.092954.177341-.297356.354714-.594721.475128-.904778c0,0,.013614.056747.525463-.095.173068-.297646.346136-.595285.471007-.908097c0,0,.017337.04748.522806-.10625.175388-.293266.350776-.586532.478029-.896169c0,0,.014835.048649.535901-.082162.172732-.299539.345465-.599071.465972-.913876c0,0,.017306.051625.529522-.092199.171236-.296776.342473-.593553.470855-.908854c0,0,.019443.042482.531566-.094733.170016-.296005.340002-.592011.468475-.906411c0,0,.018284.041642.527293-.10032.171451-.294486.342902-.588981.471955-.900839c0,0,.017459.042359.528117-.098625.172397-.295036.344763-.590066.471771-.902244c0,0,.016757.045481.529247-.096633.175541-.295357.351112-.590713.472871-.891879c0,0,.039253.037284.627288-.177162.802982-.933773,1.605933-1.867554,2.379948-2.835069c0,0,.008944.043085.509224-.106365.169101-.290938.338201-.581875.486819-.889772c0,0,.018467.020249.527232-.108059.171695-.291823.34339-.583653.471863-.89745c0,0,.015842.04584.535169-.089871.17551-.298784.351051-.597568.468505-.89839c0,0,.042031.040124.659857-.202242c1.805984-2.326998,3.611968-4.654005,5.417952-6.98101-.301847-.421604-.603724-.843215-.905602-1.264826-2.737439,1.807669-5.474908,3.61534-8.165952,5.445594c0,0-.005799-.051274-.520547.106105-.183325.297211-.366649.594423-.482974.894817c0,0-.003755-.067004-.515573.102388-.175815.300655-.351661.601308-.473389.908327c0,0-.013827-.052701-.664557.036169-.797122.64656-1.594242,1.293113-2.339657,1.957478c0,0-.005464-.054411-.51426.100533-.196968.285512-.393967.571031-1.226587,1.146502-1.87686,1.231084-3.825877,2.365916-5.618339,3.709661-8.379616,6.281985-16.660915,12.696126-25.078289,18.926609-25.249679,18.6897-50.579603,37.270975-75.813714,55.981619-18.035206,13.372788-35.954239,26.902222-53.947445,40.331795-21.412356,15.981512-42.862255,31.912696-64.270826,47.899276-23.22974,17.346482-46.417343,34.749444-69.648762,52.093667-16.160864,12.065502-33.336025,22.996654-48.241961,36.447826-11.930705,10.766353-21.265675,24.45129-31.499884,37.046416-11.583262,14.255409-22.887221,28.737835-34.306877,43.126107-4.320845,5.444068-8.625628,10.900866-13.469447,17.024031c2.632278.115615,4.239012.247288,5.845792.247807c34.671961.011204,69.344343-.074522,104.015359.107037c4.546155.023782,7.346762-1.515542,9.700459-5.240162c12.241433-19.37156,24.335408-38.84692,37.057144-57.901096c11.0943-16.616737,22.456763-33.107693,34.686933-48.889726c6.068835-7.831346,14.353858-13.944649,22.017179-20.397623.130518.142694.261038.285389.314057,1.172727-3.971168,9.315412-7.684565,18.753949-12.043993,27.883926-1.676747,3.511646-1.073511,5.770183.920222,8.67347c11.276632,16.421166,22.369084,32.968632,33.569988,49.442003c9.551107,14.047076,19.163781,28.052235,28.693858,42.614953.28515.190381.570301.380763.850446.545286c0,0-.025854-.004885.104207.514879.292873.186382.585746.372795.886128.500469c0,0-.058605.00809.39186.756611c1.156383.088566,2.312766.254219,3.469179.254555c36.801754.010654,73.603478.006716,110.405232-.005312.938109-.000306,1.876127-.115402,3.720998-.236482-1.306284-1.65848-2.145222-2.72356-3.093893-4.490114-12.410183-17.673911-24.794298-35.36623-37.23647-53.01761-20.014166-28.393676-40.069081-56.758655-60.101927-85.139172-8.17523-11.581764-16.337794-23.172473-24.332539-34.512902c4.196951-4.730107,7.901465-9.192608,11.907461-13.365614c11.389385-11.864222,22.907519-23.604739,34.364026-35.404529c10.770857-11.093644,21.522454-22.205941,32.292334-33.300487c11.575335-11.924304,23.115812-23.882984,34.759427-35.740276c8.522435-8.678828,17.209728-17.195591,25.760276-25.84714c1.106141-1.119216,1.832721-2.613685,3.421164-4.045378.446926-.667679.893881-1.335365,1.273044-2.011225c0,0-.002961.068225.512001-.106524.184606-.30067.369212-.60133.483797-.901245c0,0,.001984.069997.513375-.104272.183691-.298563.367351-.597126.484592-.899138c0,0,.004395.066402.515084-.102953.177371-.299325.354775-.598658.475006-.906365c0,0,.009707.056975.522135-.099565.185217-.294547.370433-.589103.491062-.890504c0,0,.004395.064775.520517-.094985.180302-.299585.360605-.599162.477571-.903908c0,0,.008516.062982.514932-.109127.182438-.295388.364878-.590775.485262-.894642c0,0,.006562.062311.518105-.100228.179509-.297539.359018-.595079.478975-.901099c0,0,.00992.059334.527385-.091795.181889-.297983.363779-.595964.482119-.902579c0,0,.004762.063974.533215-.078728.178074-.304806.356148-.60962.467254-.916761c0,0,.005647.066783.514657-.104945.180668-.297578.361337-.595156.481568-.901962c0,0,.009585.060357.525707-.092092.175449-.299692.350898-.599377.470916-.910501c0,0,.012758.055166.528698-.090146.176914-.297517.353798-.595026.475922-.906465Z" transform="translate(778.266914-1.045447)"/><path d="M470.383179,117.068115c.139587-.576286.622131-1.208076,1.394104-1.948822-.15744.558464-.604309,1.225891-1.394104,1.948822Z" fill="#2d8dbb"/><path d="M334.074341,440.220642c.192322-.048584.449646.162598.825226.596253-.174561.036193-.467377-.150147-.825226-.596253Z" fill="#3d8eb1"/><path d="M333.212585,439.151276c.273163-.076752.477753.152435.734528.629181-.192017.020843-.477112-.169465-.734528-.629181Z" fill="#3d8eb1"/><path d="M472.253418,114.983017c-.040222-.172951.177032-.433235.602692-.841248.023864.15281-.160706.453354-.602692.841248Z" fill="#2d8dbb"/><path d="M473.252136,113.977638c-.041473-.173576.172669-.43425.59671-.838676.026246.154693-.157379.45314-.59671.838676Z" fill="#2d8dbb"/><path d="M474.252014,112.973495c-.045441-.175056.164459-.434761.580841-.838378.029145.155304-.148224.454521-.580841.838378Z" fill="#2d8dbb"/><path d="M475.248077,111.961548c-.041534-.177582.173096-.433388.599701-.825379.026825.158265-.158355.452706-.599701.825379Z" fill="#2d8dbb"/><path d="M476.257629,110.978043c-.045166-.178536.167725-.436928.589722-.836777.028809.158005-.151459.457466-.589722.836777Z" fill="#2d8dbb"/><path d="M477.254761,109.971588c-.043274-.174812.166595-.435646.58844-.834167.029541.157592-.152863.452865-.58844.834167Z" fill="#2d8dbb"/><path d="M478.255371,108.972313c-.044311-.176262.167114-.433762.586304-.83239.028381.156304-.151093.453728-.586304.83239Z" fill="#2d8dbb"/><path d="M496.746094,84.033401c.042145.177254-.173035.433159-.597718.829506-.026184-.156662.157105-.453758.597718-.829506Z" fill="#2d8dbb"/><path d="M495.746277,85.024216c.046722.175659-.162445.435981-.577393.841285-.03006-.155555.145752-.456092.577393-.841285Z" fill="#2d8dbb"/><path d="M281.550354,309.465271c.288513-.465576.767487-.712402,1.246429-.959259-.046203.452515-.092437.904999-.40158,1.481689-.393463-.018463-.523957-.161102-.844849-.52243Z"/><path d="M237.485382,204.509933c-.293243.464966-.775864.733765-1.258499,1.002564.049591-.451569.099182-.903137.417343-1.470718.396286.013305.524017.142639.841156.468154Z"/><g transform="matrix(.820785 0 0 0.918778 59.954232 19.880265)"><path d="M281.359924,309.246552c-7.281006,6.887878-15.564422,12.998809-21.63208,20.827117-12.227798,15.77591-23.588058,32.260468-34.680206,48.870758-12.719269,19.046784-24.810898,38.514588-37.049957,57.878632-2.353241,3.723175-5.153305,5.261902-9.698578,5.238129-34.664292-.181488-69.329949-.095795-103.995186-.106995-1.606468-.000519-3.212891-.132141-5.844658-.247711c4.84288-6.120789,9.146828-11.57547,13.466835-17.017426c11.417442-14.38269,22.719208-28.859497,34.300224-43.109375c10.232224-12.59024,19.565384-26.269867,31.493775-37.032043c14.903045-13.445953,32.074875-24.372864,48.232605-36.433685c23.226913-17.337494,46.410019-34.733704,69.635254-52.073456c21.404419-15.980377,42.850158-31.90538,64.258361-47.880692c17.989716-13.424362,35.905274-26.948547,53.936982-40.316147c25.229217-18.703384,50.554229-37.27745,75.799011-55.959899c8.415741-6.228066,16.695434-12.639718,25.073425-18.919266c1.792114-1.343224,3.740753-2.477616,6.146942-3.988274.754914-.527.980133-.773948,1.205353-1.020889c0,0,.005463.05439.311981.021728c1.098786-.692733,1.891053-1.352806,2.683289-2.012886c0-.000007.013824.052674.192627-.095489.387909-.408486.597076-.668808.806213-.929131c0-.000007.003754.066971.179749-.075058.391174-.397934.606354-.653839.821533-.909752c0-.000007.005798.051247.323608.106766c1.117676,1.032318,1.917542,2.00911,2.717377,2.985901c0,.000008-.042023-.0401-.223968.093155-.446564.342865-.65448.598595-.805695.900444c0,0-.015839-.045822-.208954.083374-.462829.329361-.660889.585014-.787323.896164c0,0-.018463-.020241-.216461.115395-.457489.343338-.65445.599189-.78891.903183c0,0-.008942-.043068-.340424.002441-1.099639,1.031288-1.867797,2.017052-2.635925,3.002823c0,0-.039245-.03727-.224121.094932-.450409.340287-.655548.59668-.800293.90139c0,0-.016754-.045463-.204712.091477-.451263.345001-.653351.601318-.794281.905884c0,0-.017456-.042343-.206756.094078-.452149.344291-.652893.600807-.791474.905975c0,0-.01828-.041626-.208465.094505-.453583.343804-.653595.600792-.790223.90709c0,0-.019439-.042466-.209594.095382-.453766.348038-.654633.606888-.792725.914421c0,0-.017303-.051605-.201965.086731-.448303.34771-.654144.603577-.802185.905945c0,0-.014832-.04863-.202515.088829-.452576.34681-.655212.604996-.795624.912033c0,0-.017334-.047462-.203216.093628-.447998.354203-.651642.613289-.796784.918343c0,0-.013611-.056725-.197174.082443-.391052.397553-.598511.65593-.806.914314c0-.000007-.012756-.056137-.196075.083527-.44812.351669-.654388.610359-.802124.915726c0,0-.013977-.054749-.1987.084259-.449737.350464-.657135.608246-.806946.912361c0,0-.012756-.055145-.194824.087501-.389648.401734-.597198.660813-.804779.919892c0,0-.009583-.060334-.191223.082824-.390686.405472-.599732.667794-.808746.930115c0,0-.005646-.066757-.182801.074753-.390869.400192-.604614.658874-.818359.917541c0,0-.004761-.063949-.187164.074204-.393921.39714-.605439.656143-.816987.915146c0,0-.009918-.059311-.187957.086044-.389466.40287-.600891.66037-.812287.91787c0,0-.006561-.062287-.1875.079628-.390808.402763-.600677.663597-.810547.924423c0,0-.008514-.062958-.185943.081085-.39032.402428-.603211.66082-.816071.919205c0,.000007-.004394-.064743-.184082.074859-.394348.395409-.608978.651215-.823608.907029c0,.000007-.009705-.056946-.187653.091156-.387787.407798-.597687.667503-.807556.9272c0,0-.004394-.066376-.181091.079102-.390808.40615-.60495.666824-.819092.927505c0,.000008-.001984-.069962-.175415.0774-.390656.407639-.60791.667923-.825134.928215c0,0,.00296-.068199-.252594.044846-.738068.744835-1.220612,1.376625-1.703156,2.008415-.902222,1.320122-1.628662,2.814011-2.734588,3.932793-8.54889,8.648193-17.234498,17.161651-25.75528,25.837112-11.641357,11.852692-23.179596,23.806732-34.752686,35.72641-10.767791,11.090241-21.517303,22.198227-32.286071,33.287567-11.454285,11.795212-22.970185,23.531174-34.357361,35.390793-4.005219,4.171387-7.709015,8.632156-11.905152,13.360428c7.993195,11.336029,16.154175,22.922241,24.32782,34.499512c20.028961,28.369506,40.079987,56.72348,60.090271,85.10614c12.439759,17.644531,24.821472,35.329986,37.2099,53.730743-2.170074,1.469055-4.318207,2.836548-6.471985,2.84549-36.145691.149872-72.292114.130188-108.438354.148163c0,.00003.058594-.008057-.063416-.201203-.379333-.404327-.636657-.615509-.893982-.826691c0,0,.025849.004883-.064758-.193298-.254242-.463867-.458832-.693054-.704285-.885712-9.583618-14.018249-19.194427-28.017974-28.743682-42.0596-11.198731-16.46698-22.289032-33.008026-33.563477-49.422821-1.993347-2.902161-2.596466-5.159821-.920044-8.670105c4.358582-9.126435,8.071259-18.56131,12.343353-28.369477.347901-.948852.394135-1.401336.440338-1.853851-.478942.246857-.957916.493683-1.436859.74054Z" fill="#1291cd"/><path d="M13.3996,426.068817c-.379711-.743439-.405164-1.558197-.439607-2.780456c17.135115-17.322968,34.358347-34.15915,51.40705-51.170227c36.682579-36.601655,73.259849-73.308838,109.928352-109.924622c3.740768-3.735382,7.766205-7.191513,11.741821-10.683548c2.136658-1.87674,2.208161-3.234894.429077-5.779953-17.922928-25.639343-35.639679-51.422882-53.401626-77.174698-19.046799-27.614609-38.070465-55.245209-57.128876-82.851814-2.945534-4.266686-6.022995-8.442299-9.549065-13.372597c2.578843-.129013,4.306679-.289947,6.034607-.290909c35.828034-.019989,71.656304.034325,107.483742-.114814c3.547684-.014771,5.620682.982643,7.609665,3.970268c13.367767,20.07949,26.914993,40.040001,40.475662,59.990402c7.056519,10.381516,14.346848,20.605423,21.293549,31.058701.957901,1.441436,1.275635,4.092697.638519,5.682373-4.113312,10.263076-8.57428,20.386825-13.233993,31.043579-.362412.938858-.412003,1.390426-.461594,1.841995.482635-.268799.965256-.537598,1.447891-.806397c11.976181-9.05751,21.940705-20.199829,30.118653-32.551086c16.903411-25.529449,32.886169-51.667885,49.293548-77.526688c4.285217-6.753723,8.637909-13.470832,13.204437-20.034423.87851-1.26268,2.898987-2.454758,4.395569-2.458268c44.160858-.103851,88.322113-.053833,132.483277-.011947.277862.000259.555542.228821,1.597534.68634-5.434052,4.358391-10.523041,8.544678-15.721863,12.589821-14.71875,11.452583-29.473694,22.858734-44.230713,34.262062-18.877258,14.587219-37.819519,29.09082-56.643555,43.746338-20.268402,15.780029-40.38385,31.756531-60.658661,47.528229-14.053253,10.931945-28.321655,21.587036-42.386932,32.503723-14.227096,11.042297-28.268066,22.324325-42.488876,33.374801-18.848831,14.646729-37.823334,29.131592-56.688828,43.756989-24.052971,18.647034-48.072372,37.337524-72.066032,56.060821-20.131443,15.709473-40.198372,31.501587-60.322651,47.220246-1.13467.886291-2.531168,1.437378-4.160081,2.215759Z" fill="#949c9f"/></g></svg>
