<svg version="1.1" id="Layer_1" xmlns="http://www.w3.org/2000/svg"
	xmlns:xlink="http://www.w3.org/1999/xlink" x="0px" y="0px"
	width="100%" viewBox="0 0 512 512" enable-background="new 0 0 512 512" xml:space="preserve">
<path fill="#ffffff" opacity="1.000000" stroke="none" 
	d="
M0.999993,433.000000 
	C1.000000,289.030304 1.000000,145.060593 1.000000,1.045447 
	C171.600449,1.045447 342.200928,1.045447 512.900696,1.045447 
	C512.900696,171.564499 512.900696,342.129089 512.900696,512.846802 
	C342.333435,512.846802 171.666733,512.846802 1.000000,512.846802 
	C1.000000,487.586121 1.000000,462.258087 1.356806,436.460327 
	C5.490853,432.707123 9.268096,429.423615 13.399598,426.068817 
	C15.028513,425.290436 16.425011,424.739349 17.559681,423.853058 
	C37.683960,408.134399 57.750889,392.342285 77.882332,376.632812 
	C101.875992,357.909515 125.895393,339.219025 149.948364,320.571991 
	C168.813858,305.946594 187.788361,291.461731 206.637192,276.815002 
	C220.858002,265.764526 234.898972,254.482498 249.126068,243.440201 
	C263.191345,232.523514 277.459747,221.868423 291.513000,210.936478 
	C311.787811,195.164780 331.903259,179.188278 352.171661,163.408249 
	C370.995697,148.752731 389.937958,134.249130 408.815216,119.661911 
	C423.572235,108.258583 438.327179,96.852432 453.045929,85.399849 
	C458.244751,81.354706 463.333740,77.168419 468.767792,72.810028 
	C467.725800,72.352509 467.448120,72.123947 467.170258,72.123688 
	C423.009094,72.081802 378.847839,72.031784 334.686981,72.135635 
	C333.190399,72.139145 331.169922,73.331223 330.291412,74.593903 
	C325.724884,81.157494 321.372192,87.874603 317.086975,94.628326 
	C300.679596,120.487129 284.696838,146.625565 267.793427,172.155014 
	C259.615479,184.506271 249.650955,195.648590 237.485382,204.509933 
	C237.168243,204.184418 237.040512,204.055084 236.957031,203.554474 
	C241.348190,193.013748 245.809158,182.889999 249.922470,172.626923 
	C250.559586,171.037247 250.241852,168.385986 249.283951,166.944550 
	C242.337250,156.491272 235.046921,146.267365 227.990402,135.885849 
	C214.429733,115.935448 200.882507,95.974937 187.514740,75.895447 
	C185.525757,72.907822 183.452759,71.910408 179.905075,71.925179 
	C144.077637,72.074318 108.249367,72.020004 72.421333,72.039993 
	C70.693405,72.040955 68.965569,72.201889 66.386726,72.330902 
	C69.912796,77.261200 72.990257,81.436813 75.935791,85.703499 
	C94.994202,113.310104 114.017868,140.940704 133.064667,168.555313 
	C150.826614,194.307129 168.543365,220.090668 186.466293,245.730011 
	C188.245377,248.275070 188.173874,249.633224 186.037216,251.509964 
	C182.061600,255.001999 178.036163,258.458130 174.295395,262.193512 
	C137.626892,298.809296 101.049622,335.516479 64.367043,372.118134 
	C47.318340,389.129211 30.095108,405.965393 12.643060,423.018982 
	C11.046520,424.455750 9.840352,425.851440 8.451120,427.031555 
	C6.026781,429.090912 3.489763,431.017639 0.999993,433.000000 
M483.996460,102.996292 
	C483.996460,102.996292 484.010437,103.051041 484.524475,102.901398 
	C484.700317,102.603699 484.876160,102.306000 484.995880,101.995651 
	C484.995880,101.995651 485.008636,102.051781 485.523163,101.902733 
	C485.700470,101.605492 485.877808,101.308243 485.998199,100.998306 
	C485.998199,100.998306 486.011810,101.055031 486.523560,100.903343 
	C486.696594,100.605812 486.869629,100.308289 486.994476,99.995598 
	C486.994476,99.995598 487.011810,100.043060 487.517181,99.889389 
	C487.692535,99.596237 487.867889,99.303085 487.995117,98.993568 
	C487.995117,98.993568 488.009949,99.042198 488.530914,98.911438 
	C488.703613,98.612015 488.876312,98.312599 488.996796,97.997917 
	C488.996796,97.997917 489.014099,98.049522 489.526215,97.905754 
	C489.697418,97.609093 489.868622,97.312431 489.996979,96.997253 
	C489.996979,96.997253 490.016418,97.039719 490.528442,96.902557 
	C490.698425,96.606667 490.868378,96.310776 490.996826,95.996498 
	C490.996826,95.996498 491.015106,96.038124 491.524017,95.896217 
	C491.695435,95.601845 491.866852,95.307465 491.995880,94.995728 
	C491.995880,94.995728 492.013336,95.038071 492.523895,94.897141 
	C492.696259,94.602219 492.868591,94.307304 492.995575,93.995247 
	C492.995575,93.995247 493.012329,94.040710 493.524719,93.898651 
	C493.700226,93.603409 493.875763,93.308167 493.997498,93.007118 
	C493.997498,93.007118 494.036743,93.044388 494.624664,92.830025 
	C495.427490,91.896614 496.230286,90.963196 497.004150,89.996056 
	C497.004150,89.996056 497.013092,90.039124 497.513275,89.889732 
	C497.682343,89.598907 497.851410,89.308083 498.000000,89.000305 
	C498.000000,89.000305 498.018463,89.020546 498.527130,88.892288 
	C498.698792,88.600578 498.870453,88.308861 498.998901,87.995186 
	C498.998901,87.995186 499.014740,88.041008 499.533966,87.905350 
	C499.709442,87.606682 499.884949,87.308014 500.002380,87.007309 
	C500.002380,87.007309 500.044403,87.047417 500.662109,86.805145 
	C502.467743,84.479050 504.273376,82.152946 506.079010,79.826843 
	C505.777222,79.405403 505.475403,78.983955 505.173584,78.562508 
	C502.436676,80.369476 499.699738,82.176445 497.009216,84.005989 
	C497.009216,84.005989 497.003418,83.954735 496.488770,84.112053 
	C496.305481,84.409149 496.122192,84.706245 496.005890,85.006523 
	C496.005890,85.006523 496.002136,84.939545 495.490417,85.108871 
	C495.314636,85.409409 495.138824,85.709946 495.017120,86.016846 
	C495.017120,86.016846 495.003296,85.964165 494.352692,86.053001 
	C493.555725,86.699310 492.758759,87.345612 492.013489,88.009720 
	C492.013489,88.009720 492.008026,87.955330 491.499329,88.110214 
	C491.302399,88.395615 491.105438,88.681023 490.272980,89.256271 
	C488.396484,90.486877 486.447845,91.621269 484.655731,92.964493 
	C476.277740,99.244041 467.998047,105.655693 459.582306,111.883759 
	C434.337524,130.566208 409.012512,149.140274 383.783295,167.843658 
	C365.751587,181.211258 347.836029,194.735443 329.846313,208.159805 
	C308.438110,224.135117 286.992371,240.060120 265.587952,256.040497 
	C242.362717,273.380249 219.179611,290.776459 195.952698,308.113953 
	C179.794968,320.174774 162.623138,331.101685 147.720093,344.547638 
	C135.791702,355.309814 126.458542,368.989441 116.226318,381.579681 
	C104.645302,395.829559 93.343536,410.306366 81.926094,424.689056 
	C77.606087,430.131012 73.302139,435.585693 68.459259,441.706482 
	C71.091026,441.822052 72.697449,441.953674 74.303917,441.954193 
	C108.969154,441.965393 143.634811,441.879700 178.299103,442.061188 
	C182.844376,442.084961 185.644440,440.546234 187.997681,436.823059 
	C200.236740,417.459015 212.328369,397.991211 225.047638,378.944427 
	C236.139786,362.334137 247.500046,345.849579 259.727844,330.073669 
	C265.795502,322.245361 274.078918,316.134430 281.740753,309.683960 
	C281.871246,309.826599 282.001740,309.969238 282.054749,310.856232 
	C278.084351,320.168030 274.371674,329.602905 270.013092,338.729340 
	C268.336670,342.239624 268.939789,344.497284 270.933136,347.399445 
	C282.207581,363.814240 293.297882,380.355286 304.496613,396.822266 
	C314.045868,410.863892 323.656677,424.863617 333.184906,439.420685 
	C333.470001,439.610992 333.755096,439.801300 334.035187,439.965759 
	C334.035187,439.965759 334.009338,439.960876 334.139374,440.480438 
	C334.432190,440.666748 334.725006,440.853088 335.025330,440.980713 
	C335.025330,440.980713 334.966736,440.988800 335.417114,441.737030 
	C336.573273,441.825562 337.729431,441.991150 338.885620,441.991486 
	C375.680237,442.002136 412.474823,441.998199 449.269440,441.986176 
	C450.207367,441.985870 451.145203,441.870819 452.989716,441.749786 
	C451.683685,440.091949 450.844910,439.027283 449.896423,437.261414 
	C437.488647,419.594360 425.106934,401.908905 412.667175,384.264374 
	C392.656891,355.881714 372.605865,327.527740 352.576904,299.158234 
	C344.403259,287.580963 336.242279,275.994751 328.249084,264.658722 
	C332.445221,259.930450 336.149017,255.469681 340.154236,251.298294 
	C351.541412,239.438675 363.057312,227.702713 374.511597,215.907501 
	C385.280365,204.818161 396.029877,193.710175 406.797668,182.619934 
	C418.370758,170.700256 429.908997,158.746216 441.550354,146.893524 
	C450.071136,138.218063 458.756744,129.704605 467.305634,121.056412 
	C468.411560,119.937630 469.138000,118.443741 470.726135,117.012604 
	C471.172974,116.345184 471.619843,115.677757 471.998932,115.002159 
	C471.998932,115.002159 471.995972,115.070358 472.510834,114.895676 
	C472.695404,114.595123 472.879974,114.294579 472.994537,113.994781 
	C472.994537,113.994781 472.996521,114.064751 473.507812,113.890549 
	C473.691467,113.592102 473.875092,113.293655 473.992310,112.991760 
	C473.992310,112.991760 473.996704,113.058136 474.507294,112.888847 
	C474.684631,112.589638 474.862000,112.290421 474.982208,111.982834 
	C474.982208,111.982834 474.991913,112.039787 475.504242,111.883308 
	C475.689423,111.588875 475.874603,111.294434 475.995209,110.993149 
	C475.995209,110.993149 475.999603,111.057899 476.515625,110.898201 
	C476.695892,110.598732 476.876160,110.299271 476.993103,109.994644 
	C476.993103,109.994644 477.001617,110.057602 477.507935,109.885559 
	C477.690338,109.590286 477.872742,109.295013 477.993103,108.991264 
	C477.993103,108.991264 477.999664,109.053551 478.511108,108.891075 
	C478.690582,108.593651 478.870056,108.296227 478.989990,107.990326 
	C478.989990,107.990326 478.999908,108.049637 479.517273,107.898567 
	C479.699127,107.600700 479.880981,107.302834 479.999298,106.996338 
	C479.999298,106.996338 480.004059,107.060287 480.532410,106.917641 
	C480.710449,106.612953 480.888489,106.308258 480.999573,106.001236 
	C480.999573,106.001236 481.005219,106.067993 481.514130,105.896332 
	C481.694763,105.598869 481.875397,105.301407 481.995605,104.994720 
	C481.995605,104.994720 482.005188,105.055054 482.521210,104.902664 
	C482.696625,104.603088 482.872040,104.303520 482.992035,103.992516 
	C482.992035,103.992516 483.004791,104.047661 483.520630,103.902405 
	C483.697510,103.605003 483.874359,103.307610 483.996460,102.996292 
z"/>
<path fill="#898E92" opacity="1.000000" stroke="none" 
	d="
M0.999993,433.375000 
	C3.489763,431.017639 6.026781,429.090912 8.451120,427.031555 
	C9.840352,425.851440 11.046520,424.455750 12.652050,423.426514 
	C12.994436,424.510620 13.019889,425.325378 13.045340,426.140137 
	C9.268096,429.423615 5.490853,432.707123 1.356806,435.995300 
	C1.000000,435.250000 1.000000,434.500000 0.999993,433.375000 
z"/>
<path fill="#1291CD" opacity="1.000000" stroke="none" 
	d="
M281.359924,309.246552 
	C274.078918,316.134430 265.795502,322.245361 259.727844,330.073669 
	C247.500046,345.849579 236.139786,362.334137 225.047638,378.944427 
	C212.328369,397.991211 200.236740,417.459015 187.997681,436.823059 
	C185.644440,440.546234 182.844376,442.084961 178.299103,442.061188 
	C143.634811,441.879700 108.969154,441.965393 74.303917,441.954193 
	C72.697449,441.953674 71.091026,441.822052 68.459259,441.706482 
	C73.302139,435.585693 77.606087,430.131012 81.926094,424.689056 
	C93.343536,410.306366 104.645302,395.829559 116.226318,381.579681 
	C126.458542,368.989441 135.791702,355.309814 147.720093,344.547638 
	C162.623138,331.101685 179.794968,320.174774 195.952698,308.113953 
	C219.179611,290.776459 242.362717,273.380249 265.587952,256.040497 
	C286.992371,240.060120 308.438110,224.135117 329.846313,208.159805 
	C347.836029,194.735443 365.751587,181.211258 383.783295,167.843658 
	C409.012512,149.140274 434.337524,130.566208 459.582306,111.883759 
	C467.998047,105.655693 476.277740,99.244041 484.655731,92.964493 
	C486.447845,91.621269 488.396484,90.486877 490.802673,88.976219 
	C491.557587,88.449219 491.782806,88.202271 492.008026,87.955330 
	C492.008026,87.955330 492.013489,88.009720 492.320007,87.977058 
	C493.418793,87.284325 494.211060,86.624252 495.003296,85.964172 
	C495.003296,85.964165 495.017120,86.016846 495.195923,85.868683 
	C495.583832,85.460197 495.792999,85.199875 496.002136,84.939552 
	C496.002136,84.939545 496.005890,85.006523 496.181885,84.864494 
	C496.573059,84.466560 496.788239,84.210655 497.003418,83.954742 
	C497.003418,83.954735 497.009216,84.005989 497.327026,84.061508 
	C498.444702,85.093826 499.244568,86.070618 500.044403,87.047409 
	C500.044403,87.047417 500.002380,87.007309 499.820435,87.140564 
	C499.373871,87.483429 499.165955,87.739159 499.014740,88.041008 
	C499.014740,88.041008 498.998901,87.995186 498.805786,88.124382 
	C498.342957,88.453743 498.144897,88.709396 498.018463,89.020546 
	C498.018463,89.020546 498.000000,89.000305 497.802002,89.135941 
	C497.344513,89.479279 497.147552,89.735130 497.013092,90.039124 
	C497.013092,90.039124 497.004150,89.996056 496.672668,90.041565 
	C495.573029,91.072853 494.804871,92.058617 494.036743,93.044388 
	C494.036743,93.044388 493.997498,93.007118 493.812622,93.139320 
	C493.362213,93.479607 493.157074,93.736000 493.012329,94.040710 
	C493.012329,94.040710 492.995575,93.995247 492.807617,94.132187 
	C492.356354,94.477188 492.154266,94.733505 492.013336,95.038071 
	C492.013336,95.038071 491.995880,94.995728 491.806580,95.132149 
	C491.354431,95.476440 491.153687,95.732956 491.015106,96.038124 
	C491.015106,96.038124 490.996826,95.996498 490.806641,96.132629 
	C490.353058,96.476433 490.153046,96.733421 490.016418,97.039719 
	C490.016418,97.039719 489.996979,96.997253 489.806824,97.135101 
	C489.353058,97.483139 489.152191,97.741989 489.014099,98.049522 
	C489.014099,98.049522 488.996796,97.997917 488.812134,98.136253 
	C488.363831,98.483963 488.157990,98.739830 488.009949,99.042198 
	C488.009949,99.042198 487.995117,98.993568 487.807434,99.131027 
	C487.354858,99.477837 487.152222,99.736023 487.011810,100.043060 
	C487.011810,100.043060 486.994476,99.995598 486.808594,100.136688 
	C486.360596,100.490891 486.156952,100.749977 486.011810,101.055031 
	C486.011810,101.055031 485.998199,100.998306 485.814636,101.137474 
	C485.423584,101.535027 485.216125,101.793404 485.008636,102.051788 
	C485.008636,102.051781 484.995880,101.995651 484.812561,102.135315 
	C484.364441,102.486984 484.158173,102.745674 484.010437,103.051041 
	C484.010437,103.051041 483.996460,102.996292 483.811737,103.135300 
	C483.362000,103.485764 483.154602,103.743546 483.004791,104.047661 
	C483.004791,104.047661 482.992035,103.992516 482.809967,104.135162 
	C482.420319,104.536896 482.212769,104.795975 482.005188,105.055054 
	C482.005188,105.055054 481.995605,104.994720 481.813965,105.137878 
	C481.423279,105.543350 481.214233,105.805672 481.005219,106.067993 
	C481.005219,106.067993 480.999573,106.001236 480.822418,106.142746 
	C480.431549,106.542938 480.217804,106.801620 480.004059,107.060287 
	C480.004059,107.060287 479.999298,106.996338 479.816895,107.134491 
	C479.422974,107.531631 479.211456,107.790634 478.999908,108.049637 
	C478.999908,108.049637 478.989990,107.990326 478.811951,108.135681 
	C478.422485,108.538551 478.211060,108.796051 477.999664,109.053551 
	C477.999664,109.053551 477.993103,108.991264 477.812164,109.133179 
	C477.421356,109.535942 477.211487,109.796776 477.001617,110.057602 
	C477.001617,110.057602 476.993103,109.994644 476.815674,110.138687 
	C476.425354,110.541115 476.212463,110.799507 475.999603,111.057892 
	C475.999603,111.057899 475.995209,110.993149 475.815521,111.132751 
	C475.421173,111.528160 475.206543,111.783966 474.991913,112.039780 
	C474.991913,112.039787 474.982208,111.982834 474.804260,112.130936 
	C474.416473,112.538734 474.206573,112.798439 473.996704,113.058136 
	C473.996704,113.058136 473.992310,112.991760 473.815613,113.137238 
	C473.424805,113.543388 473.210663,113.804062 472.996521,114.064743 
	C472.996521,114.064751 472.994537,113.994781 472.821106,114.142143 
	C472.430450,114.549782 472.213196,114.810066 471.995972,115.070358 
	C471.995972,115.070358 471.998932,115.002159 471.743378,115.115204 
	C471.005310,115.860039 470.522766,116.491829 470.040222,117.123619 
	C469.138000,118.443741 468.411560,119.937630 467.305634,121.056412 
	C458.756744,129.704605 450.071136,138.218063 441.550354,146.893524 
	C429.908997,158.746216 418.370758,170.700256 406.797668,182.619934 
	C396.029877,193.710175 385.280365,204.818161 374.511597,215.907501 
	C363.057312,227.702713 351.541412,239.438675 340.154236,251.298294 
	C336.149017,255.469681 332.445221,259.930450 328.249084,264.658722 
	C336.242279,275.994751 344.403259,287.580963 352.576904,299.158234 
	C372.605865,327.527740 392.656891,355.881714 412.667175,384.264374 
	C425.106934,401.908905 437.488647,419.594360 449.877075,437.995117 
	C447.707001,439.464172 445.558868,440.831665 443.405090,440.840607 
	C407.259399,440.990479 371.112976,440.970795 334.966736,440.988770 
	C334.966736,440.988800 335.025330,440.980713 334.903320,440.787567 
	C334.523987,440.383240 334.266663,440.172058 334.009338,439.960876 
	C334.009338,439.960876 334.035187,439.965759 333.944580,439.767578 
	C333.690338,439.303711 333.485748,439.074524 333.240295,438.881866 
	C323.656677,424.863617 314.045868,410.863892 304.496613,396.822266 
	C293.297882,380.355286 282.207581,363.814240 270.933136,347.399445 
	C268.939789,344.497284 268.336670,342.239624 270.013092,338.729340 
	C274.371674,329.602905 278.084351,320.168030 282.356445,310.359863 
	C282.704346,309.411011 282.750580,308.958527 282.796783,308.506012 
	C282.317841,308.752869 281.838867,308.999695 281.359924,309.246552 
z"/>
<path fill="#949C9F" opacity="1.000000" stroke="none" 
	d="
M13.399600,426.068817 
	C13.019889,425.325378 12.994436,424.510620 12.959993,423.288361 
	C30.095108,405.965393 47.318340,389.129211 64.367043,372.118134 
	C101.049622,335.516479 137.626892,298.809296 174.295395,262.193512 
	C178.036163,258.458130 182.061600,255.001999 186.037216,251.509964 
	C188.173874,249.633224 188.245377,248.275070 186.466293,245.730011 
	C168.543365,220.090668 150.826614,194.307129 133.064667,168.555313 
	C114.017868,140.940704 94.994202,113.310104 75.935791,85.703499 
	C72.990257,81.436813 69.912796,77.261200 66.386726,72.330902 
	C68.965569,72.201889 70.693405,72.040955 72.421333,72.039993 
	C108.249367,72.020004 144.077637,72.074318 179.905075,71.925179 
	C183.452759,71.910408 185.525757,72.907822 187.514740,75.895447 
	C200.882507,95.974937 214.429733,115.935448 227.990402,135.885849 
	C235.046921,146.267365 242.337250,156.491272 249.283951,166.944550 
	C250.241852,168.385986 250.559586,171.037247 249.922470,172.626923 
	C245.809158,182.889999 241.348190,193.013748 236.688477,203.670502 
	C236.326065,204.609360 236.276474,205.060928 236.226883,205.512497 
	C236.709518,205.243698 237.192139,204.974899 237.674774,204.706100 
	C249.650955,195.648590 259.615479,184.506271 267.793427,172.155014 
	C284.696838,146.625565 300.679596,120.487129 317.086975,94.628326 
	C321.372192,87.874603 325.724884,81.157494 330.291412,74.593903 
	C331.169922,73.331223 333.190399,72.139145 334.686981,72.135635 
	C378.847839,72.031784 423.009094,72.081802 467.170258,72.123688 
	C467.448120,72.123947 467.725800,72.352509 468.767792,72.810028 
	C463.333740,77.168419 458.244751,81.354706 453.045929,85.399849 
	C438.327179,96.852432 423.572235,108.258583 408.815216,119.661911 
	C389.937958,134.249130 370.995697,148.752731 352.171661,163.408249 
	C331.903259,179.188278 311.787811,195.164780 291.513000,210.936478 
	C277.459747,221.868423 263.191345,232.523514 249.126068,243.440201 
	C234.898972,254.482498 220.858002,265.764526 206.637192,276.815002 
	C187.788361,291.461731 168.813858,305.946594 149.948364,320.571991 
	C125.895393,339.219025 101.875992,357.909515 77.882332,376.632812 
	C57.750889,392.342285 37.683960,408.134399 17.559681,423.853058 
	C16.425011,424.739349 15.028513,425.290436 13.399600,426.068817 
z"/>
<path fill="#3D8EB1" opacity="1.000000" stroke="none" 
	d="
M335.191925,441.362915 
	C371.112976,440.970795 407.259399,440.990479 443.405090,440.840607 
	C445.558868,440.831665 447.707001,439.464172 449.931946,438.345734 
	C450.844910,439.027283 451.683685,440.091949 452.989716,441.749786 
	C451.145203,441.870819 450.207367,441.985870 449.269440,441.986176 
	C412.474823,441.998199 375.680237,442.002136 338.885620,441.991486 
	C337.729431,441.991150 336.573273,441.825562 335.191925,441.362915 
z"/>
<path fill="#2D8DBB" opacity="1.000000" stroke="none" 
	d="
M500.353271,86.926277 
	C499.244568,86.070618 498.444702,85.093826 497.303833,84.050224 
	C499.699738,82.176445 502.436676,80.369476 505.173584,78.562508 
	C505.475403,78.983955 505.777222,79.405403 506.079010,79.826843 
	C504.273376,82.152946 502.467743,84.479050 500.353271,86.926277 
z"/>
<path fill="#2D8DBB" opacity="1.000000" stroke="none" 
	d="
M494.330688,92.937210 
	C494.804871,92.058617 495.573029,91.072853 496.687134,90.058434 
	C496.230286,90.963196 495.427490,91.896614 494.330688,92.937210 
z"/>
<path fill="#2D8DBB" opacity="1.000000" stroke="none" 
	d="
M494.677979,86.008591 
	C494.211060,86.624252 493.418793,87.284325 492.294159,87.968155 
	C492.758759,87.345612 493.555725,86.699310 494.677979,86.008591 
z"/>
<path fill="#2D8DBB" opacity="1.000000" stroke="none" 
	d="
M470.383179,117.068115 
	C470.522766,116.491829 471.005310,115.860039 471.777283,115.119293 
	C471.619843,115.677757 471.172974,116.345184 470.383179,117.068115 
z"/>
<path fill="#3D8EB1" opacity="1.000000" stroke="none" 
	d="
M334.074341,440.220642 
	C334.266663,440.172058 334.523987,440.383240 334.899567,440.816895 
	C334.725006,440.853088 334.432190,440.666748 334.074341,440.220642 
z"/>
<path fill="#3D8EB1" opacity="1.000000" stroke="none" 
	d="
M333.212585,439.151276 
	C333.485748,439.074524 333.690338,439.303711 333.947113,439.780457 
	C333.755096,439.801300 333.470001,439.610992 333.212585,439.151276 
z"/>
<path fill="#2D8DBB" opacity="1.000000" stroke="none" 
	d="
M472.253418,114.983017 
	C472.213196,114.810066 472.430450,114.549782 472.856110,114.141769 
	C472.879974,114.294579 472.695404,114.595123 472.253418,114.983017 
z"/>
<path fill="#2D8DBB" opacity="1.000000" stroke="none" 
	d="
M473.252136,113.977638 
	C473.210663,113.804062 473.424805,113.543388 473.848846,113.138962 
	C473.875092,113.293655 473.691467,113.592102 473.252136,113.977638 
z"/>
<path fill="#2D8DBB" opacity="1.000000" stroke="none" 
	d="
M474.252014,112.973495 
	C474.206573,112.798439 474.416473,112.538734 474.832855,112.135117 
	C474.862000,112.290421 474.684631,112.589638 474.252014,112.973495 
z"/>
<path fill="#2D8DBB" opacity="1.000000" stroke="none" 
	d="
M475.248077,111.961548 
	C475.206543,111.783966 475.421173,111.528160 475.847778,111.136169 
	C475.874603,111.294434 475.689423,111.588875 475.248077,111.961548 
z"/>
<path fill="#2D8DBB" opacity="1.000000" stroke="none" 
	d="
M476.257629,110.978043 
	C476.212463,110.799507 476.425354,110.541115 476.847351,110.141266 
	C476.876160,110.299271 476.695892,110.598732 476.257629,110.978043 
z"/>
<path fill="#2D8DBB" opacity="1.000000" stroke="none" 
	d="
M477.254761,109.971588 
	C477.211487,109.796776 477.421356,109.535942 477.843201,109.137421 
	C477.872742,109.295013 477.690338,109.590286 477.254761,109.971588 
z"/>
<path fill="#2D8DBB" opacity="1.000000" stroke="none" 
	d="
M478.255371,108.972313 
	C478.211060,108.796051 478.422485,108.538551 478.841675,108.139923 
	C478.870056,108.296227 478.690582,108.593651 478.255371,108.972313 
z"/>
<path fill="#2D8DBB" opacity="1.000000" stroke="none" 
	d="
M479.258606,107.974106 
	C479.211456,107.790634 479.422974,107.531631 479.848663,107.138802 
	C479.880981,107.302834 479.699127,107.600700 479.258606,107.974106 
z"/>
<path fill="#2D8DBB" opacity="1.000000" stroke="none" 
	d="
M480.268250,106.988968 
	C480.217804,106.801620 480.431549,106.542938 480.855896,106.143906 
	C480.888489,106.308258 480.710449,106.612953 480.268250,106.988968 
z"/>
<path fill="#2D8DBB" opacity="1.000000" stroke="none" 
	d="
M481.259674,105.982162 
	C481.214233,105.805672 481.423279,105.543350 481.844147,105.142487 
	C481.875397,105.301407 481.694763,105.598869 481.259674,105.982162 
z"/>
<path fill="#2D8DBB" opacity="1.000000" stroke="none" 
	d="
M491.269562,95.967171 
	C491.153687,95.732956 491.354431,95.476440 491.827789,95.140823 
	C491.866852,95.307465 491.695435,95.601845 491.269562,95.967171 
z"/>
<path fill="#2D8DBB" opacity="1.000000" stroke="none" 
	d="
M496.746094,84.033401 
	C496.788239,84.210655 496.573059,84.466560 496.148376,84.862907 
	C496.122192,84.706245 496.305481,84.409149 496.746094,84.033401 
z"/>
<path fill="#2D8DBB" opacity="1.000000" stroke="none" 
	d="
M495.746277,85.024216 
	C495.792999,85.199875 495.583832,85.460197 495.168884,85.865501 
	C495.138824,85.709946 495.314636,85.409409 495.746277,85.024216 
z"/>
<path fill="#2D8DBB" opacity="1.000000" stroke="none" 
	d="
M499.274353,87.973175 
	C499.165955,87.739159 499.373871,87.483429 499.849487,87.141586 
	C499.884949,87.308014 499.709442,87.606682 499.274353,87.973175 
z"/>
<path fill="#2D8DBB" opacity="1.000000" stroke="none" 
	d="
M491.753662,88.032776 
	C491.782806,88.202271 491.557587,88.449219 491.120422,88.831299 
	C491.105438,88.681023 491.302399,88.395615 491.753662,88.032776 
z"/>
<path fill="#2D8DBB" opacity="1.000000" stroke="none" 
	d="
M498.272797,88.956421 
	C498.144897,88.709396 498.342957,88.453743 498.827393,88.135361 
	C498.870453,88.308861 498.698792,88.600578 498.272797,88.956421 
z"/>
<path fill="#2D8DBB" opacity="1.000000" stroke="none" 
	d="
M497.263184,89.964432 
	C497.147552,89.735130 497.344513,89.479279 497.812256,89.144409 
	C497.851410,89.308083 497.682343,89.598907 497.263184,89.964432 
z"/>
<path fill="#2D8DBB" opacity="1.000000" stroke="none" 
	d="
M493.268524,93.969681 
	C493.157074,93.736000 493.362213,93.479607 493.839539,93.142227 
	C493.875763,93.308167 493.700226,93.603409 493.268524,93.969681 
z"/>
<path fill="#2D8DBB" opacity="1.000000" stroke="none" 
	d="
M492.268616,94.967606 
	C492.154266,94.733505 492.356354,94.477188 492.830261,94.140755 
	C492.868591,94.307304 492.696259,94.602219 492.268616,94.967606 
z"/>
<path fill="#2D8DBB" opacity="1.000000" stroke="none" 
	d="
M482.263184,104.978859 
	C482.212769,104.795975 482.420319,104.536896 482.837677,104.140884 
	C482.872040,104.303520 482.696625,104.603088 482.263184,104.978859 
z"/>
<path fill="#2D8DBB" opacity="1.000000" stroke="none" 
	d="
M490.272430,96.971138 
	C490.153046,96.733421 490.353058,96.476433 490.827393,96.141823 
	C490.868378,96.310776 490.698425,96.606667 490.272430,96.971138 
z"/>
<path fill="#2D8DBB" opacity="1.000000" stroke="none" 
	d="
M489.270142,97.977638 
	C489.152191,97.741989 489.353058,97.483139 489.828247,97.144363 
	C489.868622,97.312431 489.697418,97.609093 489.270142,97.977638 
z"/>
<path fill="#2D8DBB" opacity="1.000000" stroke="none" 
	d="
M488.270447,98.976822 
	C488.157990,98.739830 488.363831,98.483963 488.838257,98.143883 
	C488.876312,98.312599 488.703613,98.612015 488.270447,98.976822 
z"/>
<path fill="#2D8DBB" opacity="1.000000" stroke="none" 
	d="
M487.264496,99.966225 
	C487.152222,99.736023 487.354858,99.477837 487.831482,99.139206 
	C487.867889,99.303085 487.692535,99.596237 487.264496,99.966225 
z"/>
<path fill="#2D8DBB" opacity="1.000000" stroke="none" 
	d="
M486.267700,100.979187 
	C486.156952,100.749977 486.360596,100.490891 486.832703,100.144272 
	C486.869629,100.308289 486.696594,100.605812 486.267700,100.979187 
z"/>
<path fill="#2D8DBB" opacity="1.000000" stroke="none" 
	d="
M485.265900,101.977264 
	C485.216125,101.793404 485.423584,101.535027 485.843079,101.143822 
	C485.877808,101.308243 485.700470,101.605492 485.265900,101.977264 
z"/>
<path fill="#2D8DBB" opacity="1.000000" stroke="none" 
	d="
M484.267456,102.976219 
	C484.158173,102.745674 484.364441,102.486984 484.840637,102.141640 
	C484.876160,102.306000 484.700317,102.603699 484.267456,102.976219 
z"/>
<path fill="#2D8DBB" opacity="1.000000" stroke="none" 
	d="
M483.262695,103.975037 
	C483.154602,103.743546 483.362000,103.485764 483.839111,103.142258 
	C483.874359,103.307610 483.697510,103.605003 483.262695,103.975037 
z"/>
<path fill="#000000" opacity="1.000000" stroke="none" 
	d="
M281.550354,309.465271 
	C281.838867,308.999695 282.317841,308.752869 282.796783,308.506012 
	C282.750580,308.958527 282.704346,309.411011 282.395203,309.987701 
	C282.001740,309.969238 281.871246,309.826599 281.550354,309.465271 
z"/>
<path fill="#000000" opacity="1.000000" stroke="none" 
	d="
M237.485382,204.509933 
	C237.192139,204.974899 236.709518,205.243698 236.226883,205.512497 
	C236.276474,205.060928 236.326065,204.609360 236.644226,204.041779 
	C237.040512,204.055084 237.168243,204.184418 237.485382,204.509933 
z"/>
</svg>